<?xml version="1.0" encoding="UTF-8"?>
<svg width="128px" height="28px" viewBox="0 0 128 28" version="1.1" xmlns="http://www.w3.org/2000/svg" xmlns:xlink="http://www.w3.org/1999/xlink">
    <title>logo</title>
    <g id="投票上币" stroke="none" stroke-width="1" fill="none" fill-rule="evenodd">
        <g id="币种上线--上币弹窗" transform="translate(-116.000000, -442.000000)" fill="#FFBE40">
            <g id="logo" transform="translate(116.941638, 442.000000)">
                <path d="M10.0223 17.4747C10.0223 22.4534 13.2207 26.3298 16.521 26.9995H8.8069C4.98291 26.9995 0 23.7281 0 17.4747H10.0223ZM12.8321 19.5417C13.2772 22.0359 15.1127 24.351 17.6345 24.351C19.5086 24.351 21.8319 23.7736 23.1713 19.273L28.3761 1.00049H9.02876L6.6131 8.73116H15.8348L12.8321 19.5417Z" fill="#02B7CF"/>
                <path d="M82.2729 22.0419C80.8466 23.3466 79.0237 24 76.8042 24C74.0552 24 71.8966 23.119 70.3238 21.3569C68.751 19.5859 67.9646 17.1568 67.9646 14.0721C67.9646 10.7373 68.8592 8.1663 70.6483 6.35918C72.203 4.7864 74.1814 4.00001 76.5834 4.00001C79.7988 4.00001 82.149 5.05453 83.6339 7.16359C84.454 8.34656 84.8957 9.53628 84.9565 10.7283H80.9637C80.7046 9.81344 80.3711 9.12168 79.9655 8.65526C79.24 7.82605 78.1629 7.41145 76.7389 7.41145C75.3148 7.41145 74.1431 7.9973 73.3049 9.16675C72.4667 10.3384 72.0476 11.9946 72.0476 14.1375C72.0476 16.2803 72.4892 17.8846 73.377 18.9527C74.2625 20.0207 75.3869 20.5525 76.7524 20.5525C78.1179 20.5525 79.2197 20.0951 79.9543 19.178C80.3599 18.6845 80.6979 17.9477 80.966 16.9608H84.9182C84.5712 19.0428 83.6902 20.7373 82.2729 22.0419Z" fill="black"/>
                <path d="M44.6343 4.36058V17.7247H44.6321C44.6321 18.6485 44.5397 19.3065 44.3594 19.6941C44.0575 20.3498 43.4424 20.6787 42.4937 20.6787C41.5451 20.6787 40.9232 20.3791 40.6348 19.7774C40.3441 19.1781 40.1819 18.1393 40.1481 16.6612V16.2195H36.3761V16.6612C36.3761 18.9077 36.7997 20.681 37.647 21.9811C38.4942 23.2813 40.1571 23.9325 42.6379 23.9325C45.1188 23.9325 46.8335 23.128 47.7844 21.5215C48.3455 20.5706 48.6271 19.284 48.6271 17.6594V4.36058H44.6343Z" fill="black"/>
                <path d="M61.081 21.8617C61.2184 21.6453 61.3063 21.5147 61.3401 21.4718V23.4682H64.9295V9.34025H61.1846V17.0261C61.1846 17.9342 61.0629 18.6643 60.8218 19.2163C60.3554 20.237 59.4924 20.7463 58.2306 20.7463C57.2459 20.7463 56.5857 20.3858 56.2477 19.6692C56.0562 19.2636 55.9615 18.6598 55.9615 17.8553V9.34025H52.176V17.8553C52.176 19.4709 52.3788 20.6945 52.7844 21.5237C53.51 23.0266 54.9183 23.7792 57.0093 23.7792C57.7349 23.7792 58.368 23.6845 58.9088 23.4953C59.4496 23.3037 60.0084 22.95 60.5875 22.4317C60.779 22.2672 60.9435 22.078 61.081 21.8617Z" fill="black"/>
                <path fill-rule="evenodd" clip-rule="evenodd" d="M101.236 16.4291C101.236 14.3898 100.639 12.621 99.4473 11.1271C98.2553 9.6332 96.4437 8.88511 94.0169 8.88511C91.5902 8.88511 89.7785 9.6332 88.5866 11.1271C87.3946 12.6233 86.7975 14.356 86.7975 16.4291C86.7975 18.5021 87.3946 20.2754 88.5866 21.749C89.7785 23.2227 91.5902 23.9595 94.0169 23.9595C96.4437 23.9595 98.2553 23.2227 99.4473 21.749C100.639 20.2776 101.236 18.4683 101.236 16.4291ZM91.509 13.1573C92.0926 12.3934 92.9241 12.0104 94.0034 12.0104C95.0827 12.0104 95.9119 12.3934 96.491 13.1573C97.0679 13.9212 97.3585 15.0117 97.3585 16.4291C97.3585 17.8464 97.0701 18.9392 96.491 19.7076C95.9119 20.4759 95.0827 20.8612 94.0034 20.8612C92.9241 20.8612 92.0926 20.4759 91.509 19.7076C90.9255 18.9392 90.6348 17.8441 90.6348 16.4291C90.6348 15.014 90.9255 13.9212 91.509 13.1573Z" fill="black"/>
                <path d="M107.678 4.24562V7.65481H103.934V4.24562H107.678Z" fill="black"/>
                <path d="M107.678 9.34025V23.4682H103.934V9.34025H107.678Z" fill="black"/>
                <path d="M115.324 13.6688C115.79 12.6052 116.651 12.0734 117.904 12.0734V12.0757C118.922 12.0757 119.614 12.4385 119.977 13.164C120.175 13.5606 120.274 14.1307 120.274 14.8743V23.4682H124.06V13.9549C124.06 12.1839 123.596 10.9153 122.667 10.1514C121.737 9.38755 120.542 9.00449 119.082 9.00449C117.915 9.00449 116.951 9.29066 116.191 9.86074C115.768 10.1807 115.319 10.7035 114.844 11.429V9.36727H111.279V23.4682H114.961V15.8206C114.961 14.9486 115.083 14.2298 115.324 13.6688Z" fill="black"/>
            </g>
        </g>
    </g>
</svg>